<?xml version="1.0" encoding="utf-8"?>
<!-- Generator: Adobe Illustrator 22.0.1, SVG Export Plug-In . SVG Version: 6.00 Build 0)  -->
<svg version="1.1" id="Layer_1" xmlns="http://www.w3.org/2000/svg" xmlns:xlink="http://www.w3.org/1999/xlink" x="0px" y="0px"
	 viewBox="0 0 520 520" style="enable-background:new 0 0 520 520;" xml:space="preserve">
<style type="text/css">
	.st0{display:none;fill:#FFFFFF;}
	.st1{fill:#FFFFFF;}
</style>
<g id="dGBGVy.tif">
	<g>
		<path class="st0" d="M33.5,486.5c0-151,0-302,0-453c151,0,302,0,453,0c0,151,0,302,0,453C335.5,486.5,184.5,486.5,33.5,486.5z
			 M271.4,281.8c1.1-0.2,1.7-0.3,2.2-0.4c9.9-2.8,19.9-5.7,29.8-8.3c16.9-4.5,34.3-6.6,51.7-7.7c21.1-1.3,42.3-1.7,63.5,0.7
			c9.9,1.1,19.9,2.1,29.7,4.1c11.2,2.3,22.2,5.7,33.3,8.7c2.5,0.7,3.6,0.3,3.6-2.6c-0.1-10-0.1-20,0.1-30.1
			c0.2-12.2-2.2-24-4.7-35.8c-5.6-25.8-15.7-49.7-29.8-72c-17.4-27.3-39.6-49.8-66.6-67.6c-12.9-8.5-26.6-15.5-40.9-21.3
			c-20.6-8.4-42.1-13.6-64.1-15.1c-25.6-1.7-51.2-0.4-76.3,6.3c-28.4,7.6-54.3,20-77.9,37.2c-14,10.2-26,22.4-37.3,35.1
			c-16.1,18.1-28.4,38.7-37.5,61.2c-9.4,23.3-15.8,47.3-16.1,72.6c-0.2,15.6-0.7,31.3,1.7,46.9c0.6,4,1.2,4.3,4.9,2.7
			c14.4-6.4,28.9-12.5,44-17c16.6-5,33.6-8.4,50.7-9.7c20.4-1.6,41-1.4,61.1,2.7c13.8,2.8,27.4,6.8,41,10.5
			c5.5,1.5,10.7,3.8,16.5,5.9c0-1.8,0-3,0-4.3c0-7.5,0-15,0-22.5c0-3.9,1.1-4.9,5-5c2.4-0.1,4.8-0.1,7.3,0.1
			c4.3,0.4,4.9,1.1,4.9,5.4C271.4,268.7,271.4,275.1,271.4,281.8z M215.2,295c-1.2-0.8-2.2-1.9-3.4-2.1c-5.7-1.3-11.6-2-17.2-3.5
			c-3.8-1-6.1,0.2-8.4,2.9c-5.4,6.2-10.8,12.3-16.4,18.2c-15.5,16.4-32.5,30.9-51.2,43.5c-14.8,9.9-30.4,18.5-46.8,25.5
			c-2.1,0.9-3.1,1.9-1.4,4.1c7.9,10.1,15.8,20.3,23.7,30.4c1.8,2.3,3.8,2.1,6,0.7c10.4-7,21.1-13.5,31.1-21
			c17-12.8,32.1-27.6,45.9-43.7c13.9-16.1,25.8-33.5,36.7-51.7C214.3,297.4,214.6,296.5,215.2,295z M393.5,440.9
			c-0.6-1.3-0.9-2.2-1.4-3.1c-3.1-5.4-6.1-10.8-9.5-16c-16.3-25.2-34.9-48.5-57.6-68.4c-14.5-12.8-30-24-46.5-33.9
			c-3.3-2-5.9-0.7-6.4,3.1c-0.1,0.9-0.1,1.8,0,2.8c0.7,7.3,1.3,14.7,2.1,22c0.1,1,0.8,2.2,1.6,2.9c5.9,5.7,11.9,11.2,17.7,17
			c17.2,17.1,32,36.2,45,56.6c7.3,11.4,13.6,23.4,20.3,35.2c1,1.8,1.9,3.2,4.2,1.8c9.5-5.8,19-11.6,28.5-17.5
			C392.4,442.9,392.9,441.7,393.5,440.9z M199.7,477.8c0.7-8.3,1-16.2,2-24c2-14.1,4.1-28.2,6.8-42.1c4.2-21.4,10.1-42.3,18.1-62.5
			c5.7-14.3,12.3-28.2,18.5-42.3c0.9-1.9,0.9-3.2-1.5-3.9c-2.3-0.7-4.6-1.4-6.8-2.5c-3-1.4-4.7-0.2-6.2,2.4
			c-12.6,22.8-27.8,43.8-44.9,63.5c-1.1,1.3-2.1,3.1-2.4,4.8c-1.5,8.4-2.5,16.8-4.3,25.1c-4.4,20.9-10.2,41.5-17.5,61.6
			c-1.6,4.5-1.4,5.3,3,7.1c9.5,3.8,19,7.4,28.6,11C195.2,476.7,197.5,477.2,199.7,477.8z M383.3,282.3c0-0.4,0-0.8,0-1.2
			c-10.8,0.6-21.6,1.5-32.4,1.9c-13.6,0.5-27,2.8-40.2,5.7c-4.8,1.1-9.6,2.2-14.4,3.5c-1.1,0.3-2.5,1.7-2.6,2.7
			c-0.1,0.8,1.3,2.3,2.4,2.7c5.9,2.2,11.8,4.7,17.9,6.1c15.2,3.6,30.4,7.3,45.8,9.9c12.9,2.2,26,3.6,39.1,3.9
			c16.5,0.4,33.1-0.4,49.7-1.2c9.5-0.5,19-1.9,28.4-3.2c1.1-0.1,2.6-1.5,3-2.7c0.9-2.6,1-5.4,1.7-8.1c1.1-4.6,0.8-5.3-3.7-6.8
			c-20.7-6.9-41.9-11.4-63.6-13.1C404.1,281.7,393.7,282.3,383.3,282.3z M168.9,286.5c-2-0.2-3-0.5-4-0.4
			c-12.5,0.5-25.1,0.5-37.5,1.8c-16,1.6-31.8,5.2-46.9,10.8C68,303.3,56,309.1,43.8,314.4c-2.3,1-3.2,2.6-2.4,5.3
			c4.1,15,9.6,29.4,16.8,43.3c1.4,2.7,2.8,2.8,5.1,1.8c17.3-7.4,33.6-16.4,49.1-27.1c16.7-11.4,31.7-24.8,45.7-39.3
			C161.6,294.6,164.9,290.9,168.9,286.5z M244.3,485.7c1-3.8,1.8-6.7,2.6-9.7c1.5-5.6,3.1-11.2,4.6-16.9c1.6-6.2,2.9-12.4,4.9-18.5
			c2.2-6.6,5.3-12.9,7.3-19.5c1.2-3.7,1.7-7.9,1.4-11.8c-0.9-8.6-2.8-17-3.8-25.6c-1.9-16.1-3.4-32.2-5.1-48.4
			c-0.3-2.7-0.6-5.3-1-7.9c-0.3-0.1-0.6-0.1-0.9-0.2c-0.7,1.4-1.5,2.7-2.1,4.1c-3.4,8.3-6.9,16.5-10.2,24.9
			c-7.6,19.4-13.1,39.5-17,60c-2.6,13.4-4.5,26.9-6.3,40.5c-1,7.4-1.2,14.9-1.6,22.4c-0.1,1,0.7,2.8,1.3,2.9
			C226.9,483.5,235.5,484.6,244.3,485.7z M324.6,324.5c-0.5,0.3-2.2,0.8-2.5,1.7c-0.3,1,0.5,2.6,1.4,3.4c3,2.8,6.5,5.2,9.4,8.1
			c12.2,12.2,24.9,23.9,36.3,36.9c14.2,16.2,26.3,34,36.8,52.9c1.4,2.5,2.5,2.9,4.6,0.8c6.3-6.4,12.7-12.7,19-19.1
			c3.7-3.8,3.6-3.8,0.6-8.4c-1.3-2-2.6-4.1-3.9-6.1c-11.8-18.8-23.1-37.8-31.2-58.5c-0.3-0.8-1.8-1.5-2.8-1.7
			c-17-2.3-33.9-4.4-50.9-6.7C336,327,330.7,325.7,324.6,324.5z M278.8,383.3c0.7,5.7,1.2,10.4,2,15c1.1,6.5,2.3,13,3.5,19.6
			c1,5.4,1.9,10.8,3.1,16.2c2.1,9.1,4.3,18.2,6.5,27.3c1.4,6,2.8,12,4.4,17.9c0.5,1.9,1.8,3.2,4.2,2.5c12.7-3.6,25.4-7.1,38.1-10.9
			c3.7-1.1,4.1-2.5,2.3-6c-2.5-4.7-5.1-9.2-7.7-13.9c-14-25.2-31-48.1-50.9-68.9c-1-1-2.6-1.4-4-2.1
			C279.7,381.4,279.1,382.8,278.8,383.3z M473,335.6c0.1-2.9-1-4.2-3.5-4c-5.5,0.5-10.9,1.2-16.4,1.6c-11.4,0.9-22.9,1.7-34.4,2.4
			c-4.7,0.3-5.3,0.5-3.1,4.7c8.1,15.2,16.6,30.2,25.1,45.1c2.5,4.4,4.5,4.3,7.2-0.2c5.7-9.8,11.5-19.6,16.7-29.7
			C467.9,348.9,470.3,342,473,335.6z M162.7,390.7c-1.4,0.7-2,0.8-2.5,1.2c-14.3,12.9-29.8,24.2-46.2,34.3c-3.4,2.1-3.6,3.8-0.3,6.2
			c8.8,6.6,17.7,13.1,26.7,19.5c3.8,2.7,4.7,2.3,6-2c4.2-13.7,8.4-27.4,12.3-41.2C160.4,403,161.3,397.1,162.7,390.7z M262.9,484.8
			c6.9,0,12.4,0,18.4,0c-2.8-10.9-5.6-21.3-8.3-31.8c-0.5,0-1,0-1.5,0C268.7,463.5,265.8,474,262.9,484.8z"/>
		<path class="st1" d="M271.4,281.8c0-6.8,0-13.1,0-19.4c0-4.2-0.7-5-4.9-5.4c-2.4-0.2-4.8-0.1-7.3-0.1c-3.8,0.1-4.9,1.1-5,5
			c-0.1,7.5,0,15,0,22.5c0,1.2,0,2.5,0,4.3c-5.8-2.1-11-4.4-16.5-5.9c-13.6-3.7-27.2-7.7-41-10.5c-20.2-4-40.7-4.2-61.1-2.7
			c-17.2,1.3-34.1,4.7-50.7,9.7c-15.1,4.5-29.6,10.6-44,17c-3.7,1.6-4.3,1.3-4.9-2.7c-2.4-15.6-1.9-31.2-1.7-46.9
			c0.3-25.3,6.7-49.3,16.1-72.6c9.1-22.5,21.4-43.1,37.5-61.2C99,100.3,111,88.1,124.8,78c23.7-17.2,49.5-29.7,77.9-37.2
			c25.1-6.7,50.7-8,76.3-6.3c22,1.5,43.5,6.6,64.1,15.1c14.3,5.9,28,12.8,40.9,21.3c27,17.8,49.2,40.3,66.6,67.6
			c14.1,22.2,24.2,46.2,29.8,72c2.5,11.8,4.9,23.6,4.7,35.8c-0.2,10-0.1,20-0.1,30.1c0,2.9-1.1,3.3-3.6,2.6
			c-11.1-3-22.1-6.4-33.3-8.7c-9.8-2-19.8-3-29.7-4.1c-21.1-2.4-42.3-2-63.5-0.7c-17.4,1.1-34.8,3.3-51.7,7.7
			c-10,2.6-19.9,5.5-29.8,8.3C273,281.6,272.5,281.6,271.4,281.8z M248.8,221.3c1-2.9,1.8-4.9,2.4-7c2.9-10.4,5.8-20.8,8.7-31.2
			c0.7-2.5,1.4-4.9,4.8-4.9c4,14.3,8.1,28.5,12.1,42.7c0.5,0.1,1,0.2,1.5,0.3c2-2.4,3.9-4.9,5.9-7.3c7.2-8.5,11.1-17.9,8.6-29.2
			c-1.2-5.7-1.7-11.6-3.2-17.3c-6.8-24.8-13.9-49.5-21-74.3c-1.4-5-3.3-9.9-4.9-14.8c-0.3,0-0.7,0.1-1,0.1c-0.5,1.2-1.2,2.4-1.6,3.6
			c-9.5,28.2-17.7,56.8-24.6,85.7c-2.1,8.7-4.2,17.5-3.7,26.5c0.2,2.9,0.6,6.1,2,8.6c3.1,5.3,6.9,10.3,10.5,15.4
			C246.1,219.3,247.3,220,248.8,221.3z M144,159.8c-0.2,0.3-0.4,0.6-0.7,0.9c0.2,0.6,0.3,1.3,0.6,1.9c11.3,23.5,24.3,46.1,38,68.3
			c6.6,10.7,15.8,15.1,27.7,15.5c1.1,0,2.2,0,3.8,0c-0.9-2-1.3-3.3-2-4.6c-4.1-7.3-8.2-14.6-12.3-22c-0.9-1.6-1.4-3.4-2-5.1
			c0.3-0.3,0.7-0.6,1-0.9c10.1,5.6,20.3,11.2,30.6,16.8c1.8-7-1.2-19.5-5.6-23.7c-3-2.9-6.3-5.9-9.8-8.1c-11.2-7-22.5-13.8-34-20.3
			C167.7,172,155.8,166,144,159.8z M328.6,213.1c0.3,0.3,0.6,0.6,0.9,1c-5.8,10.5-11.7,21.1-17.5,31.6c0.3,0.4,0.6,0.9,0.9,1.3
			c5.4-0.9,10.8-1.4,16-2.8c7.2-1.9,11.3-7.9,14.8-13.8c12.6-21.7,24.8-43.7,37.2-65.6c0.7-1.3,1.1-2.8,1.9-4.9
			c-2.1,0.9-3.4,1.3-4.6,2c-9.4,4.9-18.9,9.6-28,14.8c-13.5,7.7-26.7,15.7-40,23.7c-11.1,6.7-14.3,17.2-13.7,30.6
			C307.5,224.7,318.1,218.9,328.6,213.1z M384.1,205.6c0.5,2.6,0.8,4.6,1.4,6.5c1.4,4.1,1,7.5-2.5,10.5c-1.6,1.4-2.7,3.4-4.1,5.3
			c4.7,0.8,9.2,0.6,12.3,2.5c3.2,2,5,6.2,7.9,10.1c1.3-3.1,2.4-5.4,3.2-7.9c1.1-3.4,3.4-5,6.8-5.5c2.3-0.4,4.6-1.1,7.8-2
			c-2.6-2.5-4.5-4.5-6.7-6.3c-2.5-2.1-3.6-4.5-3.1-7.8c0.4-2.3,0.1-4.7,0.1-7.5c-3.8,2-7.2,4.9-10.8,5.3
			C392.7,209.2,388.7,206.9,384.1,205.6z M139.6,205.5c-4.5,1.3-8.5,3.6-12.2,3.3s-7.2-3.3-10.8-5.1c-0.4,0-0.8,0-1.2,0
			c3.5,9.6,0,16.3-9.2,21.1c2.3,0.8,3.4,1.4,4.4,1.4c7.4,0.5,11.3,4.6,12.7,11.7c0,0.1,0,0.2,0.1,0.3c0.7,1.8,1.8,2.1,2.9,0.4
			c1.1-1.6,2.2-3.3,3.1-5c1.7-3.1,4-4.8,7.7-4.7c2.3,0.1,4.7-0.4,8.2-0.7c-2.3-2.7-3.8-4.8-5.6-6.6c-2.3-2.4-3.1-4.8-1.9-8.1
			C138.8,211.2,139,208.5,139.6,205.5z M197,122.6c-0.3,7.8-4.1,12.4-12.1,14.5c3.8,2.5,7.3,3.6,8.9,6c1.7,2.5,1.6,6.2,2.6,10.5
			c4.8-6.3,10.6-8.2,18.2-5.6c-1.6-4-3.6-7-3.6-9.9c0.1-2.9,2.2-5.8,3.9-9.6C207.4,130.2,201.5,128.9,197,122.6z M310.8,147.4
			c7.5-2.5,13.1,0.4,18.4,5.5c-1-8.4,3.7-12.4,10.4-15.5c-7.6-2.2-11-7.2-11-14.9c-3.3,2.5-5.5,5.2-8.3,6.2c-2.8,1-6.2,0.2-10.7,0.2
			C315.3,135.1,315.1,140.9,310.8,147.4z"/>
		<path class="st1" d="M215.2,295c-0.6,1.5-0.9,2.4-1.3,3.2c-10.9,18.2-22.9,35.6-36.7,51.7c-13.9,16.1-28.9,31-45.9,43.7
			c-10,7.5-20.7,14-31.1,21c-2.2,1.5-4.2,1.7-6-0.7c-7.9-10.2-15.8-20.3-23.7-30.4c-1.7-2.1-0.7-3.2,1.4-4.1
			c16.4-7,32-15.6,46.8-25.5c18.7-12.5,35.7-27.1,51.2-43.5c5.6-5.9,11-12.1,16.4-18.2c2.3-2.7,4.6-3.9,8.4-2.9
			c5.6,1.5,11.5,2.3,17.2,3.5C213,293.2,214.1,294.3,215.2,295z"/>
		<path class="st1" d="M393.5,440.9c-0.6,0.8-1.1,2-2,2.5c-9.5,5.9-19,11.7-28.5,17.5c-2.3,1.4-3.2-0.1-4.2-1.8
			c-6.7-11.8-13-23.8-20.3-35.2c-13-20.4-27.8-39.5-45-56.6c-5.8-5.8-11.8-11.3-17.7-17c-0.8-0.7-1.5-1.9-1.6-2.9
			c-0.8-7.3-1.4-14.6-2.1-22c-0.1-0.9-0.1-1.9,0-2.8c0.5-3.8,3.1-5.1,6.4-3.1c16.5,9.9,32,21.1,46.5,33.9
			c22.6,20,41.3,43.2,57.6,68.4c3.4,5.2,6.4,10.7,9.5,16C392.6,438.6,393,439.6,393.5,440.9z"/>
		<path class="st1" d="M199.7,477.8c-2.2-0.6-4.5-1.1-6.6-1.8c-9.6-3.6-19.1-7.2-28.6-11c-4.4-1.8-4.6-2.6-3-7.1
			c7.4-20.1,13.1-40.7,17.5-61.6c1.8-8.3,2.7-16.8,4.3-25.1c0.3-1.7,1.3-3.5,2.4-4.8c17.1-19.7,32.3-40.7,44.9-63.5
			c1.4-2.6,3.1-3.8,6.2-2.4c2.2,1,4.5,1.8,6.8,2.5c2.4,0.7,2.3,1.9,1.5,3.9c-6.2,14.1-12.8,28-18.5,42.3
			c-8,20.2-13.9,41.2-18.1,62.5c-2.7,14-4.8,28.1-6.8,42.1C200.6,461.6,200.4,469.5,199.7,477.8z"/>
		<path class="st1" d="M383.3,282.3c10.4,0,20.8-0.7,31.1,0.1c21.7,1.7,42.9,6.2,63.6,13.1c4.4,1.5,4.8,2.1,3.7,6.8
			c-0.6,2.7-0.8,5.5-1.7,8.1c-0.4,1.1-1.9,2.5-3,2.7c-9.5,1.2-18.9,2.7-28.4,3.2c-16.5,0.8-33.1,1.6-49.7,1.2
			c-13.1-0.3-26.2-1.7-39.1-3.9c-15.4-2.6-30.6-6.3-45.8-9.9c-6.1-1.5-12-3.9-17.9-6.1c-1-0.4-2.5-1.9-2.4-2.7
			c0.1-1,1.5-2.4,2.6-2.7c4.7-1.4,9.5-2.5,14.4-3.5c13.3-2.9,26.6-5.3,40.2-5.7c10.8-0.4,21.6-1.2,32.4-1.9
			C383.3,281.5,383.3,281.9,383.3,282.3z"/>
		<path class="st1" d="M168.9,286.5c-4,4.4-7.4,8.2-10.8,11.8c-14,14.6-29,27.9-45.7,39.3c-15.5,10.6-31.8,19.7-49.1,27.1
			c-2.4,1-3.8,0.9-5.1-1.8C51,349,45.5,334.6,41.4,319.6c-0.7-2.7,0.1-4.3,2.4-5.3C56,309,68,303.2,80.5,298.6
			c15.1-5.6,30.8-9.3,46.9-10.8c12.4-1.2,25-1.2,37.5-1.8C165.9,286,166.9,286.2,168.9,286.5z"/>
		<path class="st1" d="M244.3,485.7c-8.8-1.2-17.4-2.3-26-3.6c-0.6-0.1-1.3-1.9-1.3-2.9c0.4-7.5,0.6-15,1.6-22.4
			c1.8-13.5,3.7-27.1,6.3-40.5c4-20.4,9.4-40.5,17-60c3.3-8.3,6.7-16.6,10.2-24.9c0.6-1.4,1.4-2.8,2.1-4.1c0.3,0.1,0.6,0.1,0.9,0.2
			c0.3,2.6,0.7,5.3,1,7.9c1.7,16.1,3.2,32.3,5.1,48.4c1,8.5,2.9,17,3.8,25.6c0.4,3.9-0.2,8-1.4,11.8c-2.1,6.6-5.2,12.9-7.3,19.5
			c-2,6-3.3,12.3-4.9,18.5c-1.5,5.6-3.1,11.2-4.6,16.9C246.1,479,245.3,482,244.3,485.7z"/>
		<path class="st1" d="M324.6,324.5c6.1,1.2,11.4,2.5,16.7,3.2c16.9,2.3,33.9,4.4,50.9,6.7c1,0.1,2.5,0.9,2.8,1.7
			c8.1,20.7,19.4,39.8,31.2,58.5c1.3,2,2.5,4.1,3.9,6.1c3,4.6,3.1,4.6-0.6,8.4c-6.3,6.4-12.7,12.7-19,19.1c-2.1,2.1-3.2,1.7-4.6-0.8
			c-10.5-18.9-22.6-36.7-36.8-52.9c-11.3-13-24.1-24.7-36.3-36.9c-2.9-2.9-6.4-5.3-9.4-8.1c-0.9-0.8-1.6-2.5-1.4-3.4
			C322.4,325.3,324.1,324.8,324.6,324.5z"/>
		<path class="st1" d="M278.8,383.3c0.3-0.6,0.9-1.9,1.6-3.2c1.3,0.7,3,1.1,4,2.1c19.8,20.8,36.9,43.8,50.9,68.9
			c2.6,4.6,5.2,9.2,7.7,13.9c1.8,3.5,1.4,4.9-2.3,6c-12.7,3.7-25.4,7.2-38.1,10.9c-2.3,0.7-3.7-0.6-4.2-2.5
			c-1.6-5.9-3-11.9-4.4-17.9c-2.2-9.1-4.5-18.2-6.5-27.3c-1.2-5.4-2.1-10.8-3.1-16.2c-1.2-6.5-2.5-13-3.5-19.6
			C280.1,393.7,279.6,389,278.8,383.3z"/>
		<path class="st1" d="M473,335.6c-2.7,6.4-5.1,13.4-8.5,19.9c-5.2,10.1-11,19.9-16.7,29.7c-2.7,4.6-4.6,4.7-7.2,0.2
			c-8.5-14.9-16.9-30-25.1-45.1c-2.2-4.1-1.6-4.4,3.1-4.7c11.5-0.7,22.9-1.5,34.4-2.4c5.5-0.4,11-1.1,16.4-1.6
			C472,331.3,473,332.7,473,335.6z"/>
		<path class="st1" d="M162.7,390.7c-1.4,6.5-2.3,12.3-4,18c-3.9,13.8-8.2,27.5-12.3,41.2c-1.3,4.4-2.2,4.7-6,2
			c-9-6.4-17.9-12.9-26.7-19.5c-3.3-2.5-3.1-4.1,0.3-6.2c16.4-10.1,31.9-21.3,46.2-34.3C160.7,391.5,161.4,391.3,162.7,390.7z"/>
		<path class="st1" d="M262.9,484.8c2.9-10.8,5.8-21.3,8.6-31.7c0.5,0,1,0,1.5,0c2.7,10.4,5.4,20.9,8.3,31.8
			C275.3,484.8,269.8,484.8,262.9,484.8z"/>
	</g>
</g>
</svg>
